<svg xmlns="http://www.w3.org/2000/svg" width="32" height="32" viewBox="0 0 32 32" fill="none">
<path fill-rule="evenodd" clip-rule="evenodd" d="M12.2281 5.56079C13.2283 4.5606 14.5849 3.9987 15.9993 3.9987C17.4138 3.9987 18.7704 4.5606 19.7706 5.56079C20.7708 6.56099 21.3327 7.91754 21.3327 9.33203V13.332H10.666V9.33203C10.666 7.91754 11.2279 6.56099 12.2281 5.56079ZM7.99935 13.332V9.33203C7.99935 7.2103 8.8422 5.17547 10.3425 3.67518C11.8428 2.17489 13.8776 1.33203 15.9993 1.33203C18.1211 1.33203 20.1559 2.17489 21.6562 3.67518C23.1565 5.17547 23.9993 7.2103 23.9993 9.33203V13.332H25.3327C27.5418 13.332 29.3327 15.1229 29.3327 17.332V26.6654C29.3327 28.8745 27.5418 30.6654 25.3327 30.6654H6.66602C4.45688 30.6654 2.66602 28.8745 2.6602 26.6654V17.332C2.66602 15.1229 4.45688 13.332 6.66602 13.332H7.99935ZM22.666 15.9987H9.33268L6.66602 15.9987C5.92964 15.9987 5.33268 16.5957 5.33268 17.332V26.6654C5.33268 27.4017 5.92964 27.9987 6.66602 27.9987H25.3327C26.0691 27.9987 26.666 27.4017 26.666 26.6654V17.332C26.666 16.5957 26.0691 15.9987 25.3327 15.9987L22.666 15.9987Z" fill="white"/>
</svg>