<svg width="16" height="16" viewBox="0 0 16 16" fill="none" xmlns="http://www.w3.org/2000/svg">
<path d="M13.7472 13.0944H3.7376L1.4208 4.7744H15.9872L13.7472 13.0944ZM4.7744 12.5184H13.2864L15.0528 5.9392H2.944L4.768 12.5184H4.7744Z" fill="black"/>
<path d="M13.056 5.3568H11.904C11.904 4.5098 11.5675 3.6975 10.9686 3.09858C10.3697 2.49967 9.55739 2.1632 8.7104 2.1632C7.8634 2.1632 7.0511 2.49967 6.45218 3.09858C5.85326 3.6975 5.5168 4.5098 5.5168 5.3568H4.352C4.352 4.20258 4.81051 3.09563 5.62667 2.27947C6.44283 1.46331 7.54977 1.0048 8.704 1.0048C9.85822 1.0048 10.9652 1.46331 11.7813 2.27947C12.5975 3.09563 13.056 4.20258 13.056 5.3568V5.3568Z" fill="black"/>
</svg>
