<svg xmlns="http://www.w3.org/2000/svg" width="32" height="32" viewBox="0 0 32 32" fill="none">
<path fill-rule="evenodd" clip-rule="evenodd" d="M16.0007 1.33203C16.5082 1.33203 16.9717 1.62013 17.1963 2.0752L21.0064 9.79399L29.5269 11.0394C30.0289 11.1128 30.4459 11.4648 30.6024 11.9475C30.7589 12.4301 30.6278 12.9598 30.2643 13.3138L24.1001 19.3179L25.5548 27.8C25.6406 28.3002 25.435 28.8058 25.0243 29.1041C24.6137 29.4024 24.0693 29.4417 23.6201 29.2055L16.0007 25.1985L8.38129 29.2055C7.93207 29.4417 7.38768 29.4024 6.97705 29.1041C6.56641 28.8058 6.36075 28.3002 6.44655 27.8L7.90133 19.3179L1.73705 13.3138C1.37356 12.9598 1.24252 12.4301 1.39903 11.9475C1.55553 11.4648 1.97244 11.1128 2.47452 11.0394L10.995 9.79399L14.8051 2.0752C15.0297 1.62013 15.4932 1.33203 16.0007 1.33203ZM16.0007 5.6777L13.0763 11.6022C12.8822 11.9953 12.5073 12.2679 12.0735 12.3313L5.53191 13.2875L10.2643 17.8969C10.5788 18.2032 10.7224 18.6447 10.6482 19.0774L9.5316 25.5876L15.3801 22.5119C15.7686 22.3076 16.2328 22.3076 16.6213 22.5119L22.4698 25.5876L21.3532 19.0774C21.279 18.6447 21.4226 18.2032 21.737 17.8969L26.4695 13.2875L19.9279 12.3313C19.494 12.2679 19.1191 11.9953 18.9251 11.6022L16.0007 5.6777Z" fill="white"/>
</svg>