<svg xmlns="http://www.w3.org/2000/svg" width="32" height="32" viewBox="0 0 32 32" fill="none">
<path fill-rule="evenodd" clip-rule="evenodd" d="M0 4.0013C0 3.26492 0.596954 2.66797 1.33333 2.66797H21.3333C22.0697 2.66797 22.6667 3.26492 22.6667 4.0013V21.3346C22.6667 22.071 22.0697 22.668 21.3333 22.668H1.33333C0.596954 22.668 0 22.071 0 21.3346V4.0013ZM2.66667 5.33464V20.0013H20V5.33464H2.66667Z" fill="white"/>
<path fill-rule="evenodd" clip-rule="evenodd" d="M20 10.6654C20 9.92898 20.597 9.33203 21.3333 9.33203H26.6667C27.0203 9.33203 27.3594 9.47251 27.6095 9.72256L31.6095 13.7226C31.8595 13.9726 32 14.3117 32 14.6654V21.332C32 22.0684 31.403 22.6654 30.6667 22.6654H21.3333C20.597 22.6654 20 22.0684 20 21.332V10.6654ZM22.6667 11.9987V19.9987H29.3333V15.2176L26.1144 11.9987H22.6667Z" fill="white"/>
<path fill-rule="evenodd" clip-rule="evenodd" d="M7.33335 22.6667C6.22878 22.6667 5.33335 23.5621 5.33335 24.6667C5.33335 25.7712 6.22878 26.6667 7.33335 26.6667C8.43792 26.6667 9.33335 25.7712 9.33335 24.6667C9.33335 23.5621 8.43792 22.6667 7.33335 22.6667ZM2.66669 24.6667C2.66669 22.0893 4.75602 20 7.33335 20C9.91068 20 12 22.0893 12 24.6667C12 27.244 9.91068 29.3333 7.33335 29.3333C4.75602 29.3333 2.66669 27.244 2.66669 24.6667Z" fill="white"/>
<path fill-rule="evenodd" clip-rule="evenodd" d="M24.6667 22.6667C23.5621 22.6667 22.6667 23.5621 22.6667 24.6667C22.6667 25.7712 23.5621 26.6667 24.6667 26.6667C25.7712 26.6667 26.6667 25.7712 26.6667 24.6667C26.6667 23.5621 25.7712 22.6667 24.6667 22.6667ZM20 24.6667C20 22.0893 22.0893 20 24.6667 20C27.244 20 29.3333 22.0893 29.3333 24.6667C29.3333 27.244 27.244 29.3333 24.6667 29.3333C22.0893 29.3333 20 27.244 20 24.6667Z" fill="white"/>
</svg>