<svg xmlns="http://www.w3.org/2000/svg" width="32" height="32" viewBox="0 0 32 32" fill="none">
<path fill-rule="evenodd" clip-rule="evenodd" d="M2.66732 2.66797C1.93094 2.66797 1.33398 3.26492 1.33398 4.0013V24.0013C1.33398 24.7377 1.93094 25.3346 2.66732 25.3346H12.0007C12.7079 25.3346 13.3862 25.6156 13.8863 26.1157C14.3864 26.6158 14.6673 27.2941 14.6673 28.0013C14.6673 28.7377 15.2643 29.3346 16.0007 29.3346C16.737 29.3346 17.334 28.7377 17.334 28.0013C17.334 27.2941 17.6149 26.6158 18.115 26.1157C18.6151 25.6156 19.2934 25.3346 20.0007 25.3346H29.334C30.0704 25.3346 30.6673 24.7377 30.6673 24.0013V4.0013C30.6673 3.26492 30.0704 2.66797 29.334 2.66797H21.334C19.5659 2.66797 17.8702 3.37035 16.6199 4.62059C16.3956 4.84496 16.1888 5.08368 16.0007 5.33459C15.8125 5.08368 15.6057 4.84496 15.3814 4.62059C14.1311 3.37035 12.4354 2.66797 10.6673 2.66797H2.66732ZM17.334 23.3825C18.1379 22.9184 19.0563 22.668 20.0007 22.668H28.0007V5.33464H21.334C20.2731 5.33464 19.2557 5.75606 18.5056 6.50621C17.7554 7.25635 17.334 8.27377 17.334 9.33464V23.3825ZM14.6673 23.3825V9.33464C14.6673 8.27377 14.2459 7.25635 13.4957 6.50621C12.7456 5.75606 11.7282 5.33464 10.6673 5.33464H4.00065V22.668H12.0007C12.945 22.668 13.8634 22.9184 14.6673 23.3825Z" fill="white"/>
</svg>