<svg width="24" height="24" viewBox="0 0 24 24" fill="none" xmlns="http://www.w3.org/2000/svg">
    <path fill-rule="evenodd" clip-rule="evenodd" d="M11.9999 3C8.53836 3 6.46143 5.20086 6.46143 8.42356C6.46143 11.5677 8.46144 13.7685 11.9999 13.8471C15.4614 13.8471 17.5384 11.5677 17.5384 8.42356C17.5384 5.27946 15.4614 3 11.9999 3ZM11.9999 3.15719C14.923 3.15719 16.2307 5.59387 16.2307 8.34495C16.2307 11.1746 14.8461 13.5327 11.9999 13.5327C9.15374 13.5327 7.76913 11.096 7.76913 8.34495C7.76913 5.59387 9.07682 3.15719 11.9999 3.15719ZM4 18.4076V21.0015H20L19.9231 18.6434V18.5648C19.9231 18.5648 19.5385 17.4644 18.3846 16.4426C17.3077 15.4994 15.3077 14.3203 12 14.3203C5.61538 14.3203 4 18.329 4 18.4076ZM19.6154 20.2155H4.76923V18.5648C4.77665 18.5497 4.78658 18.5272 4.79941 18.4981C5.05257 17.9248 6.43587 14.7919 12 14.7919C17.8462 14.7919 19.4615 18.329 19.6154 18.7221V20.2155Z" fill="black" />
</svg>